<svg xmlns="http://www.w3.org/2000/svg" width="822" height="216" viewBox="0 0 822 216" font-family="-apple-system,Segoe UI,Helvetica,Arial,sans-serif" role="img" aria-label="quality gate verdict and findings per category: count, delta vs base and trend"><rect width="822" height="216" fill="#ffffff"/><rect x="0" y="0" width="158" height="104" rx="8" fill="#f6f8fa" stroke="#cf222e" stroke-width="1.5"/><text x="12" y="20" font-size="11" fill="#656d76">🚦 Quality gate</text><circle cx="140" cy="16" r="4" fill="#cf222e"/><text x="12" y="46" font-size="22" font-weight="700" fill="#cf222e">FAIL</text><text x="12" y="62" font-size="11" fill="#cf222e">7 new · 2 crit · 1 major</text><path d="M12 94 L24.2 92.7 L36.4 94 L48.5 87.3 L60.7 88.7 L72.9 90 L85.1 84.7 L97.3 82 L109.5 83.3 L121.6 74 L133.8 75.3 L146 75.3" fill="none" stroke="#cf222e" stroke-width="1.5"/><rect x="166" y="0" width="158" height="104" rx="8" fill="#f6f8fa"/><text x="178" y="20" font-size="11" fill="#656d76">🔐 Security &amp; OWASP</text><circle cx="306" cy="16" r="4" fill="#cf222e"/><text x="178" y="46" font-size="22" font-weight="700" fill="#cf222e">1</text><text x="312" y="46" font-size="13" font-weight="600" text-anchor="end" fill="#cf222e">▲1</text><text x="178" y="62" font-size="11" fill="#cf222e">1 new 🆕</text><path d="M178 94 L190.2 94 L202.4 94 L214.5 94 L226.7 94 L238.9 94 L251.1 94 L263.3 94 L275.5 94 L287.6 74 L299.8 74 L312 74" fill="none" stroke="#cf222e" stroke-width="1.5"/><rect x="332" y="0" width="158" height="104" rx="8" fill="#f6f8fa"/><text x="344" y="20" font-size="11" fill="#656d76">🎯 Pentest checks</text><circle cx="472" cy="16" r="4" fill="#cf222e"/><text x="344" y="46" font-size="22" font-weight="700" fill="#cf222e">8</text><text x="478" y="46" font-size="13" font-weight="600" text-anchor="end" fill="#cf222e">▲2</text><text x="344" y="62" font-size="11" fill="#cf222e">2 new 🆕</text><path d="M344 94 L356.2 90 L368.4 94 L380.5 82 L392.7 86 L404.9 90 L417.1 82 L429.3 74 L441.5 78 L453.6 78 L465.8 82 L478 82" fill="none" stroke="#cf222e" stroke-width="1.5"/><rect x="498" y="0" width="158" height="104" rx="8" fill="#f6f8fa"/><text x="510" y="20" font-size="11" fill="#656d76">📦 Dependencies</text><circle cx="638" cy="16" r="4" fill="#1a7f37"/><text x="510" y="46" font-size="22" font-weight="700" fill="#1a7f37">0</text><text x="510" y="62" font-size="11" fill="#656d76">clean</text><path d="M510 84 L522.2 84 L534.4 84 L546.5 84 L558.7 84 L570.9 84 L583.1 84 L595.3 84 L607.5 84 L619.6 84 L631.8 84 L644 84" fill="none" stroke="#1a7f37" stroke-width="1.5"/><rect x="664" y="0" width="158" height="104" rx="8" fill="#f6f8fa"/><text x="676" y="20" font-size="11" fill="#656d76">🌀 Complexity</text><circle cx="804" cy="16" r="4" fill="#bc4c00"/><text x="676" y="46" font-size="22" font-weight="700" fill="#bc4c00">3</text><text x="810" y="46" font-size="13" font-weight="600" text-anchor="end" fill="#cf222e">▲1</text><text x="676" y="62" font-size="11" fill="#cf222e">1 new 🆕</text><path d="M676 94 L688.2 94 L700.4 94 L712.5 87.3 L724.7 87.3 L736.9 87.3 L749.1 80.7 L761.3 80.7 L773.5 80.7 L785.6 74 L797.8 74 L810 74" fill="none" stroke="#bc4c00" stroke-width="1.5"/><rect x="0" y="112" width="158" height="104" rx="8" fill="#f6f8fa"/><text x="12" y="132" font-size="11" fill="#656d76">👯 Duplication</text><circle cx="140" cy="128" r="4" fill="#9a6700"/><text x="12" y="158" font-size="22" font-weight="700" fill="#9a6700">1</text><text x="146" y="158" font-size="13" font-weight="600" text-anchor="end" fill="#656d76">±0</text><text x="12" y="174" font-size="11" fill="#cf222e">1 new 🆕</text><path d="M12 206 L24.2 206 L36.4 206 L48.5 206 L60.7 206 L72.9 206 L85.1 206 L97.3 206 L109.5 206 L121.6 186 L133.8 186 L146 186" fill="none" stroke="#9a6700" stroke-width="1.5"/><rect x="166" y="112" width="158" height="104" rx="8" fill="#f6f8fa"/><text x="178" y="132" font-size="11" fill="#656d76">🪦 Dead code</text><circle cx="306" cy="128" r="4" fill="#bc4c00"/><text x="178" y="158" font-size="22" font-weight="700" fill="#bc4c00">5</text><text x="312" y="158" font-size="13" font-weight="600" text-anchor="end" fill="#cf222e">▲1</text><text x="178" y="174" font-size="11" fill="#cf222e">1 new 🆕</text><path d="M178 206 L190.2 206 L202.4 206 L214.5 199.3 L226.7 199.3 L238.9 199.3 L251.1 192.7 L263.3 192.7 L275.5 192.7 L287.6 186 L299.8 186 L312 186" fill="none" stroke="#bc4c00" stroke-width="1.5"/><rect x="332" y="112" width="158" height="104" rx="8" fill="#f6f8fa"/><text x="344" y="132" font-size="11" fill="#656d76">🔄 Architecture</text><circle cx="472" cy="128" r="4" fill="#bc4c00"/><text x="344" y="158" font-size="22" font-weight="700" fill="#bc4c00">1</text><text x="478" y="158" font-size="13" font-weight="600" text-anchor="end" fill="#656d76">±0</text><text x="344" y="174" font-size="11" fill="#656d76">no new</text><path d="M344 206 L356.2 206 L368.4 206 L380.5 206 L392.7 206 L404.9 206 L417.1 206 L429.3 206 L441.5 206 L453.6 186 L465.8 186 L478 186" fill="none" stroke="#bc4c00" stroke-width="1.5"/><rect x="498" y="112" width="158" height="104" rx="8" fill="#f6f8fa"/><text x="510" y="132" font-size="11" fill="#656d76">♿ Accessibility</text><circle cx="638" cy="128" r="4" fill="#9a6700"/><text x="510" y="158" font-size="22" font-weight="700" fill="#9a6700">1</text><text x="644" y="158" font-size="13" font-weight="600" text-anchor="end" fill="#656d76">±0</text><text x="510" y="174" font-size="11" fill="#cf222e">1 new 🆕</text><path d="M510 206 L522.2 206 L534.4 206 L546.5 206 L558.7 206 L570.9 206 L583.1 206 L595.3 206 L607.5 206 L619.6 186 L631.8 186 L644 186" fill="none" stroke="#9a6700" stroke-width="1.5"/><rect x="664" y="112" width="158" height="104" rx="8" fill="#f6f8fa"/><text x="676" y="132" font-size="11" fill="#656d76">🧹 Code smells</text><circle cx="804" cy="128" r="4" fill="#9a6700"/><text x="676" y="158" font-size="22" font-weight="700" fill="#9a6700">1</text><text x="810" y="158" font-size="13" font-weight="600" text-anchor="end" fill="#656d76">±0</text><text x="676" y="174" font-size="11" fill="#656d76">no new</text><path d="M676 206 L688.2 206 L700.4 206 L712.5 206 L724.7 206 L736.9 206 L749.1 206 L761.3 206 L773.5 206 L785.6 186 L797.8 186 L810 186" fill="none" stroke="#9a6700" stroke-width="1.5"/></svg>